<svg width="512" height="512" viewBox="0 0 512 512" fill="none" xmlns="http://www.w3.org/2000/svg">
  <!-- Background with gradient -->
  <defs>
    <linearGradient id="bgGradient" x1="0%" y1="0%" x2="100%" y2="100%">
      <stop offset="0%" style="stop-color:#6B9B3A;stop-opacity:1" />
      <stop offset="100%" style="stop-color:#5A8332;stop-opacity:1" />
    </linearGradient>
  </defs>
  <rect width="512" height="512" rx="64" fill="url(#bgGradient)"/>
  
  <!-- Zipline cable -->
  <line x1="64" y1="128" x2="448" y2="384" stroke="white" stroke-width="20" stroke-linecap="round"/>
  
  <!-- Zipline pulley/harness -->
  <circle cx="256" cy="256" r="48" fill="white"/>
  <circle cx="256" cy="256" r="24" fill="#6B9B3A"/>
  
  <!-- Person figure -->
  <circle cx="256" cy="192" r="32" fill="white"/>
  <rect x="240" y="224" width="32" height="64" fill="white"/>
  <line x1="224" y1="256" x2="192" y2="288" stroke="white" stroke-width="24" stroke-linecap="round"/>
  <line x1="288" y1="256" x2="320" y2="288" stroke="white" stroke-width="24" stroke-linecap="round"/>
  
  <!-- Trees/forest background -->
  <path d="M32 448 L64 320 L96 448 Z" fill="white" opacity="0.3"/>
  <path d="M416 448 L448 320 L480 448 Z" fill="white" opacity="0.3"/>
  <path d="M128 480 L144 400 L160 480 Z" fill="white" opacity="0.2"/>
  <path d="M352 480 L368 400 L384 480 Z" fill="white" opacity="0.2"/>
  <path d="M64 480 L72 440 L80 480 Z" fill="white" opacity="0.15"/>
  <path d="M432 480 L440 440 L448 480 Z" fill="white" opacity="0.15"/>
  
  <!-- Adventure text -->
  <text x="256" y="480" font-family="Arial, sans-serif" font-size="42" font-weight="bold" fill="white" text-anchor="middle" opacity="0.8">ZIPLINE</text>
</svg>
